<?xml version="1.0" encoding="utf-8"?>
<svg version="1.1" xmlns:cc="http://creativecommons.org/ns#" xmlns:dc="http://purl.org/dc/elements/1.1/" xmlns:rdf="http://www.w3.org/1999/02/22-rdf-syntax-ns#" xmlns="http://www.w3.org/2000/svg" xmlns:xlink="http://www.w3.org/1999/xlink" x="0px" y="0px" viewBox="0 0 1024 768" xml:space="preserve">

 
 <g id="logo-group" transform="translate(0 -.011907) scale(1)">
  <path id="path2619" style="font-variant-ligatures:none" d="m289.18 367.8c-2.88-4.77-6.84-8.46-11.88-11.25-5.04-2.7-10.89-4.05-17.37-4.05h-24.93v4.14h24.57c5.76 0 10.89 1.17 15.39 3.51 4.41 2.34 7.83 5.58 10.26 9.63 2.34 4.14 3.6 8.91 3.6 14.22 0 5.4-1.26 10.08-3.6 14.22-2.43 4.14-5.85 7.38-10.26 9.72-4.5 2.34-9.63 3.42-15.39 3.42h-19.98v-27.36h-4.59v31.5h24.93c6.48 0 12.33-1.35 17.37-4.05s9-6.39 11.88-11.16c2.79-4.77 4.23-10.17 4.23-16.29 0-6.03-1.44-11.43-4.23-16.2z" stroke-miterlimit="2" stroke-width="0" fill="#211c19"/>
  <path id="path2623" style="font-variant-ligatures:none" d="m404.9 356.64v58.86h4.59v-58.86h22.68v-4.14h-49.95v4.14z" stroke-miterlimit="2" stroke-width="0" fill="#211c19"/>
  <path id="path2625" style="font-variant-ligatures:none" d="m469.59 352.5h-4.59l-28.98 63h4.95l26.28-57.96 26.37 57.96h4.95z" stroke-miterlimit="2" stroke-width="0" fill="#211c19"/>
  <path id="path2627" style="font-variant-ligatures:none" d="m597.33 352.5h-4.5l-19.35 56.79-19.62-56.79h-4.41l-19.71 56.7-19.17-56.7h-4.86l21.42 63h4.86l19.62-56.52 19.53 56.52h4.86z" stroke-miterlimit="2" stroke-width="0" fill="#211c19"/>
  <path id="path2629" style="font-variant-ligatures:none" d="m638.01 352.5h-4.59l-28.98 63h4.95l26.28-57.96 26.37 57.96h4.95z" stroke-miterlimit="2" stroke-width="0" fill="#211c19"/>
  <path id="path2631" style="font-variant-ligatures:none" d="m731.82 352.5h-4.77l-25.47 57.06-25.47-57.06h-5.04l28.08 63h4.59z" stroke-miterlimit="2" stroke-width="0" fill="#211c19"/>
  <path id="path2633" style="font-variant-ligatures:none" d="m789 381.48h-40.77v4.05h40.77zm0-28.98h-40.77v4.14h40.77zm-40.77 58.86v4.14h40.77v-4.14z" stroke-miterlimit="2" stroke-width="0" fill="#211c19"/>
  <path id="icon" stroke-width=".46324" fill="#ce3126" d="m341 353.1c-0.0355-0.00025-0.1141 0.0713-0.23309 0.21223-0.0989 0.11693-0.25575 0.31087-0.34899 0.43141-0.0932 0.12028-0.30572 0.41004-0.47208 0.6439-0.16664 0.2336-0.50252 0.72631-0.74664 1.0946-0.24417 0.36831-0.62329 0.95348-0.84221 1.3007-0.21893 0.34693-0.56121 0.89761-0.76059 1.2234-0.19909 0.32581-0.50997 0.84147-0.6905 1.1461-0.18055 0.30443-0.48162 0.82034-0.66937 1.1461-0.18751 0.32582-0.4801 0.84147-0.64983 1.1461-0.16973 0.30443-0.52054 0.94783-0.77939 1.4294-0.25911 0.48163-0.63362 1.1655-0.83216 1.5196-0.19858 0.35414-0.58673 1.032-0.86231 1.5067-0.27559 0.47468-0.75053 1.286-1.0555 1.8029-0.30495 0.51692-1.159 1.9484-1.8982 3.1808-0.73919 1.2324-1.9157 3.1855-2.6145 4.3399-0.69902 1.1544-1.7164 2.8409-2.2614 3.7475-0.54472 0.9066-1.178 1.967-1.4075 2.3567-0.22948 0.38943-0.53133 0.92258-0.67095 1.1848-0.13934 0.26194-0.42085 0.77731-0.62536 1.1451-0.2045 0.3678-0.67637 1.2023-1.0485 1.8544-0.37243 0.65215-1.0393 1.8117-1.4823 2.5766-0.443 0.76494-1.2662 2.1802-1.8292 3.1448-0.56329 0.96483-1.4385 2.46-1.9448 3.3225-0.50664 0.86282-1.4331 2.4378-2.0592 3.5002s-2.3031 3.8964-3.7269 6.2972c-1.4235 2.401-3.2491 5.4838-4.0568 6.8512-0.8077 1.3669-1.711 2.8968-2.0077 3.3998l-0.53935 0.91434 36.856 0.006c20.271 0.004 36.861 0.001 36.867-0.005s-0.16586-0.32195-0.38221-0.70185c-0.2161-0.3799-0.65937-1.1544-0.98466-1.721-0.32529-0.56663-0.86412-1.4998-1.1974-2.0734-0.33328-0.57386-0.97048-1.6633-1.4163-2.4211-0.44583-0.75799-1.8856-3.1688-3.1994-5.3573s-2.7363-4.5644-3.1608-5.28c-0.42472-0.71551-1.1196-1.8918-1.5448-2.6142-0.42498-0.72246-0.93518-1.5917-1.1338-1.9317-0.19832-0.33998-0.596-1.0238-0.88316-1.5196-0.28743-0.4958-0.87005-1.51-1.2947-2.2536-0.42446-0.74381-1.0877-1.9201-1.4732-2.6142-0.38557-0.69411-0.86361-1.5634-1.0624-1.9317-0.19858-0.36831-0.55505-1.0405-0.79223-1.4938-0.23721-0.45331-0.58803-1.1199-0.7799-1.481-0.19188-0.36135-0.58029-1.074-0.86361-1.584-0.28331-0.50998-0.69439-1.2401-0.91354-1.6226-0.21919-0.38248-0.60165-1.0431-0.84995-1.4681-0.24829-0.42497-0.732-1.2422-1.0751-1.8158-0.34306-0.57385-1.1044-1.8544-1.6922-2.846-0.58775-0.9916-1.339-2.2609-1.6695-2.8203-0.33045-0.55968-0.88936-1.5101-1.2419-2.112-0.45408-0.77551-0.74359-1.3048-0.99262-1.8158-0.19343-0.39664-0.57488-1.1696-0.84735-1.7179-0.2725-0.5481-0.68281-1.3594-0.91174-1.8029-0.22897-0.44326-0.57284-1.1019-0.7642-1.463-0.19136-0.36135-0.51591-0.96404-0.72117-1.3393-0.20527-0.37552-0.50715-0.92027-0.67044-1.2105-0.16355-0.29053-0.44789-0.78296-0.6318-1.0946-0.18416-0.31165-0.45048-0.75207-0.59188-0.97873-0.14166-0.22665-0.39664-0.62073-0.56691-0.8757-0.17024-0.25498-0.40282-0.59109-0.51664-0.74692-0.1141-0.15582-0.30032-0.39921-0.41364-0.54087-0.11333-0.14166-0.3271-0.38222-0.47519-0.53444-0.14784-0.15247-0.32864-0.32297-0.40153-0.37938-0.0729-0.0562-0.20141-0.13728-0.28564-0.17978-0.0842-0.0428-0.17694-0.0778-0.2063-0.078zm-0.0368 16.975c0.007-0.00026 2.2766 3.9963 5.0432 8.8812 3.017 5.3267 5.4092 9.5811 5.9771 10.63 0.52077 0.96172 1.2984 2.3917 1.728 3.178 0.42987 0.78607 1.0534 1.9219 1.3857 2.5241 0.33225 0.60193 0.85972 1.5523 1.1719 2.112 0.31216 0.5594 0.83939 1.4982 1.1719 2.0862 0.33225 0.58775 0.84813 1.4918 1.1461 2.009 0.29825 0.51692 0.78296 1.3473 1.0774 1.8452 0.29439 0.49761 0.6766 1.1351 0.84943 1.4166 0.17308 0.28126 0.40102 0.6483 0.50688 0.81571 0.10585 0.16715 0.18827 0.30804 0.18312 0.31293-0.005 0.005-8.9974 0.0394-19.983 0.0762-10.986 0.0371-20.324 0.0672-20.752 0.067l-0.77884-0.00046 0.34436-0.50868c0.1893-0.27971 0.46953-0.70569 0.62254-0.94653 0.15325-0.24082 0.44274-0.70518 0.64362-1.0318 0.20064-0.32684 0.55014-0.90637 0.77652-1.2878 0.22639-0.3817 0.58905-1.0011 0.80589-1.3764 0.21686-0.37552 0.6748-1.1577 1.0176-1.7385 0.34281-0.5808 0.76262-1.2934 0.93286-1.584 0.17025-0.29052 0.50043-0.85846 0.73404-1.262 0.23335-0.40386 0.63306-1.0993 0.8883-1.5454 0.25498-0.44635 0.71885-1.2633 1.0308-1.8158 0.3119-0.55245 0.9084-1.6188 1.3256-2.3695 0.41724-0.75076 0.97149-1.7534 1.2316-2.2279 0.28898-0.52721 1.2136-2.0896 2.3778-4.0179 1.048-1.7354 2.7742-4.5982 3.8361-6.3616 1.0619-1.7638 2.3763-3.9535 2.9207-4.8663 0.54449-0.9128 1.166-1.9642 1.3813-2.3363 0.21507-0.37192 0.39716-0.6766 0.40411-0.67688z"/>
 </g>

</svg>